<svg xmlns="http://www.w3.org/2000/svg" width="429" height="634" fill="none"><path fill="url(#a)" d="M226.812 601.386c-69.069 0-159.344-135.484-159.344-152.593v-19.85c-5.453-22.042-11.483-85.514-11.483-85.514l-1.529-.173v131.647c0 17.109 90.275 152.593 159.344 152.593 67.079 0 154.094-127.781 159.114-150.804-27.582 44.834-93.074 124.694-146.102 124.694z"/><path fill="url(#b)" d="M203.356 3.246C77.104 7.69 3.246 90.347 3.246 194.99c0 57.183 3.202 89.409 51.094 150.92 0 0-53.893-196.36 23.658-263.843 107.009-93.102 230.779-64.05 230.779-64.05-3.49-.028 5.944-14.77-105.421-14.77z"/><path fill="#231811" d="M143.085 344.582c-4.298 0-7.76-3.491-7.76-7.761 0-3.029 1.759-5.655 4.298-6.953a17.654 17.654 0 0 0-9.751-2.943c-9.752 0-17.657 7.906-17.657 17.657 0 9.752 7.905 17.657 17.657 17.657 9.751 0 17.656-7.905 17.656-17.657 0-.461-.028-.894-.057-1.356a7.73 7.73 0 0 1-4.386 1.356zm167.713 0c-4.299 0-7.761-3.491-7.761-7.761 0-3.029 1.76-5.655 4.299-6.953a17.654 17.654 0 0 0-9.751-2.943c-9.752 0-17.657 7.906-17.657 17.657 0 9.752 7.905 17.657 17.657 17.657 9.751 0 17.656-7.905 17.656-17.657 0-.461-.028-.894-.057-1.356a7.73 7.73 0 0 1-4.386 1.356z"/><path fill="#1C1E21" d="M213.713 633.006c-71.32 0-162.23-137.158-162.23-155.478V342.649l7.069.808.23 2.337c3.953 41.401 10.012 86.726 13.359 90.938 1.01 1.27 4.933 4.761 19.936 14.108 5.395 3.347 12.435 2.568 16.762-1.933 20.715-21.465 55.048-31.909 104.903-31.909 50.345 0 84.85 10.646 105.479 32.515 3.924 4.155 10.444 4.876 15.493 1.731 15.522-9.636 19.59-13.242 20.628-14.541 3.347-4.212 9.435-49.537 13.358-90.938l.231-2.337 7.069-.808v134.879c-.058 18.349-90.968 155.507-162.287 155.507zM57.225 385.637v91.891c0 6.722 20.657 43.449 53.057 80.84 22.302 25.735 65.376 68.896 103.402 68.896 38.025 0 81.1-43.19 103.402-68.925 32.4-37.391 53.057-74.089 53.057-80.811v-91.92c-2.914 24.004-6.809 50.259-10.358 54.731-.836 1.038-3.375 4.212-22.071 15.839-7.385 4.587-16.935 3.462-22.734-2.683-19.503-20.658-52.625-30.698-101.296-30.698-48.21 0-81.187 9.867-100.748 30.121-6.203 6.433-16.3 7.587-23.975 2.827-18.06-11.252-20.57-14.368-21.379-15.406-3.548-4.472-7.443-30.727-10.357-54.702z"/><path fill="#1C1E21" d="M273.378 469.912c-46.739 16.935-73.686 16.936-119.357.029 1.5-2.366-4.27 4.876-2.221 2.798 24.581 9.088 43.247 13.445 61.51 13.445 18.234 0 37.189-4.357 62.318-13.445 2.02 2.049-3.75-5.193-2.25-2.827z"/><path fill="#1C1E21" d="M213.282 487.597c-17.657 0-36.006-3.981-61.251-13.242-.606.317-1.154.259-1.645-.173-1.096-.981-.317-1.991 1.126-3.78 1.586-1.991 2.365-2.972 3.577-2.106.231.173.462.404.548.721 44.315 16.243 70.743 16.243 116.126-.029.115-.317.317-.548.548-.692 1.212-.866 1.991.115 3.577 2.106 1.443 1.818 2.251 2.828 1.126 3.809-.491.432-1.039.49-1.645.173-25.822 9.232-44.43 13.213-62.087 13.213zm-59.347-15.637c24.437 8.915 42.267 12.752 59.347 12.752 17.108 0 35.169-3.837 60.183-12.752a72.86 72.86 0 0 1-.346-.433c-46.479 16.734-73.397 16.734-118.838.029-.115.144-.23.26-.346.404zm47.43-91.401h24.697l-12.349 7.299-12.348-7.299z"/><path fill="url(#c)" fill-rule="evenodd" d="M255.778 173.063a3.244 3.244 0 0 0-1.096-.173h-26.601a3.394 3.394 0 0 1-1.904-.606 4.146 4.146 0 0 1-.721-.692c-.202-.26-.346-.577-.462-.924l-8.222-25.302c-.491-1.5-1.789-2.25-3.087-2.25-1.299 0-2.597.75-3.087 2.25l-8.223 25.302a3.056 3.056 0 0 1-1.183 1.616 3.185 3.185 0 0 1-1.904.606h-26.601c-2.74 0-4.096 3.087-2.683 5.078.202.288.462.548.779.779l21.523 15.637a3.225 3.225 0 0 1 1.327 2.597c0 .346-.057.692-.173 1.009l-4.126 12.666-4.125 12.666c-.491 1.5.115 2.856 1.183 3.606.259.202.548.346.865.462.318.115.635.173.952.173.664.029 1.356-.173 1.991-.635l21.523-15.637a3.312 3.312 0 0 1 1.904-.606c.433 0 .866.115 1.298.317.202.087.433.173.606.318l14.339 10.415 7.184 5.222c.635.461 1.327.663 1.991.635 1.99-.058 3.722-2.02 3-4.242l-8.222-25.302a3.346 3.346 0 0 1 0-1.991 3.129 3.129 0 0 1 1.183-1.615l21.522-15.638c.635-.461 1.039-1.067 1.212-1.702.087-.317.144-.634.116-.981a3.098 3.098 0 0 0-2.078-3.058zm-22.619 18.696a6.463 6.463 0 0 0-2.366 7.241l8.223 25.303-21.523-15.638a6.498 6.498 0 0 0-7.617 0l-21.523 15.638 7.906-10.675 8.943-12.291a8.066 8.066 0 0 0 7.617 5.366h3.231c4.472 0 8.108-3.635 8.108-8.107 0-4.472-3.636-8.107-8.108-8.107h-3.231c-4.472 0-8.107-3.635-8.107-8.107 0-4.472 3.635-8.107 8.107-8.107h3.231a8.074 8.074 0 0 1 6.348 3.087l1.817-2.539a6.467 6.467 0 0 0 3.809 1.241h26.6l-21.465 15.695z" clip-rule="evenodd"/><path fill="#231F20" d="M213.714 143.116c1.299 0 2.597.75 3.087 2.25l8.223 25.303a3.257 3.257 0 0 0 3.087 2.25h26.601c3.144 0 4.443 4.01 1.904 5.857l-21.523 15.637c-1.125.837-1.616 2.279-1.183 3.606l8.223 25.303c.75 2.279-1.068 4.241-3.088 4.241a3.274 3.274 0 0 1-1.904-.635l-21.523-15.637a3.312 3.312 0 0 0-1.904-.606c-.663 0-1.327.202-1.904.606l-21.523 15.637a3.271 3.271 0 0 1-1.904.635c-2.02 0-3.837-1.991-3.087-4.241l8.223-25.303c.432-1.327-.029-2.798-1.183-3.606l-21.523-15.637c-2.539-1.847-1.241-5.857 1.904-5.857h26.601a3.221 3.221 0 0 0 3.087-2.25l8.222-25.303c.491-1.529 1.789-2.25 3.087-2.25zm0-5.77a8.99 8.99 0 0 0-8.569 6.232l-7.645 23.571h-24.783a8.99 8.99 0 0 0-8.569 6.232c-1.212 3.721.116 7.761 3.26 10.069l20.052 14.569-7.646 23.572c-.894 2.769-.432 5.712 1.27 8.049 1.702 2.337 4.443 3.751 7.328 3.751 1.904 0 3.722-.606 5.28-1.731l20.051-14.57 20.052 14.57c1.557 1.125 3.375 1.731 5.279 1.731 2.885 0 5.626-1.414 7.328-3.751 1.703-2.337 2.164-5.28 1.27-8.049l-7.646-23.572 20.052-14.569a8.968 8.968 0 0 0 3.26-10.069 8.99 8.99 0 0 0-8.569-6.232h-24.783l-7.645-23.571c-1.27-3.751-4.732-6.232-8.627-6.232z"/><path fill="url(#d)" d="M247.961 225.514c-.202 1.442-.721 2.856-1.615 4.068-1.703 2.337-4.443 3.75-7.328 3.75-1.905 0-3.722-.605-5.28-1.731l-19.936-14.483c4.068 6.174 7.703 10.444 7.703 10.444 72.214 77.234 151.526 122.675 151.526 122.675l-125.07-124.723z"/><path fill="#231F20" d="M213.714.13C150.155.13 96.088 19.662 57.341 56.59 20.614 91.617.361 140.78.361 194.961c0 56.173 2.51 93.823 51.7 157.036l1.962 2.539 2.308-2.222c.722-.692 62.117-59.866 123.454-125.357a8.927 8.927 0 0 1 0-5.424l1.529-4.674c-56.404 60.616-114.48 117.25-126.656 129.05C8.496 285.726 6.131 249.172 6.131 194.961c0-52.596 19.59-100.258 55.192-134.186C98.973 24.885 151.655 5.9 213.714 5.9c63.27 0 116.356 16.618 153.458 48.095 36.641 31.044 56.029 75.012 56.029 127.175 0 50.23-42.18 144.832-51.095 164.278-13.214-12.002-69.243-63.328-124.29-119.126a8.918 8.918 0 0 1-1.443 3.26c-.49.664-1.096 1.241-1.731 1.76 62.405 63.184 125.733 120.338 126.512 121.03l2.885 2.597 1.673-3.491C377.876 346.89 429 238.353 429 181.17 428.942 71.19 344.467.13 213.714.13z"/><defs><linearGradient id="a" x1="54.466" x2="372.934" y1="485.387" y2="485.387" gradientUnits="userSpaceOnUse"><stop offset=".015" stop-color="#00EC97"/><stop offset="1" stop-color="#0097EC"/></linearGradient><linearGradient id="b" x1="3.25" x2="308.803" y1="174.563" y2="174.563" gradientUnits="userSpaceOnUse"><stop offset=".015" stop-color="#00EC97"/><stop offset="1" stop-color="#0097EC"/></linearGradient><linearGradient id="c" x1="213.702" x2="213.702" y1="227.57" y2="143.106" gradientUnits="userSpaceOnUse"><stop stop-color="#2C98F0"/><stop offset="1" stop-color="#00FFC2"/></linearGradient><linearGradient id="d" x1="213.818" x2="373.055" y1="283.679" y2="283.679" gradientUnits="userSpaceOnUse"><stop offset=".015" stop-color="#00EC97"/><stop offset="1" stop-color="#0097EC"/></linearGradient></defs></svg>