<svg xmlns="http://www.w3.org/2000/svg" width="1029.563" height="548.695" data-name="Layer 1"><path fill="#f1f1f1" d="m48.156 547.115.213-1.126c.048-.248 4.908-24.91 23.127-39.22 18.22-14.312 43.33-13.192 43.582-13.179l1.145.06-.214 1.125c-.047.247-4.908 24.909-23.126 39.22-18.22 14.312-43.331 13.192-43.582 13.178zM72.73 508.34c-15.404 12.1-20.95 31.884-22.137 36.859 5.115.021 25.664-.69 41.053-12.778 15.388-12.087 20.946-31.88 22.138-36.858-5.119-.022-25.665.69-41.054 12.777z"/><path fill="#f1f1f1" d="M79.977 513.83c-8.346 21.497-30.318 33.022-30.318 33.022s-8.439-23.331-.093-44.83 30.317-33.021 30.317-33.021 8.44 23.33.094 44.828zm919.364 33.343c-.25.014-25.362 1.134-43.582-13.178-18.218-14.311-23.079-38.973-23.126-39.22l-.214-1.126 1.145-.059c.251-.013 25.363-1.133 43.582 13.178s23.08 38.973 23.127 39.22l.213 1.127zm-64.484-51.61c1.192 4.979 6.75 24.772 22.138 36.86 15.389 12.087 35.938 12.798 41.053 12.777-1.187-4.975-6.733-24.76-22.137-36.859-15.389-12.087-35.935-12.799-41.054-12.777z"/><path fill="#f1f1f1" d="M968.665 513.83c8.346 21.497 30.318 33.022 30.318 33.022s8.439-23.331.093-44.83-30.317-33.021-30.317-33.021-8.44 23.33-.094 44.828z"/><path fill="#e6e6e6" d="m590.096 541.975-14.592-6.145-10.01-73.151H432.189l-10.85 72.852-13.056 6.528a3.1 3.1 0 0 0 1.387 5.873h179.223a3.1 3.1 0 0 0 1.203-5.957z"/><path fill="#ccc" d="M826.987 472.411H172.158a12.973 12.973 0 0 1-12.944-12.973v-92.34h680.718v92.34a12.974 12.974 0 0 1-12.945 12.973z"/><path fill="#3f3d56" d="M840.616 410.74h-682V15.64A15.657 15.657 0 0 1 174.256 0h650.72a15.657 15.657 0 0 1 15.64 15.64z"/><path fill="#fff" d="M799.883 382.064H199.35a12.07 12.07 0 0 1-12.057-12.057V40.733a12.07 12.07 0 0 1 12.057-12.057h600.534a12.07 12.07 0 0 1 12.057 12.057v329.274a12.07 12.07 0 0 1-12.057 12.057z"/><path fill="#ccc" d="M1028.036 548.695H1.588A1.567 1.567 0 0 1 .05 547.56a1.53 1.53 0 0 1 1.477-1.919h1026.385a1.615 1.615 0 0 1 1.616 1.194 1.528 1.528 0 0 1-1.49 1.859z"/><path fill="#e5e5e5" d="M219.582 153.203h98.806v9.279h-98.806zm0 22.503h98.806v9.279h-98.806zm0 23h98.806v9.279h-98.806zm0 23h98.806v9.279h-98.806z"/><path fill="#1de4b4" d="M242.985 250.932h52v8.053h-52z"/><path fill="#e5e5e5" d="M471.192 210.754h.945v2.834h-.945zm.945 63.225h-.945v-6.04h.945zm0-12.078h-.945v-6.04h.945zm0-12.079h-.945v-6.039h.945zm0-12.078h-.945v-6.039h.945zm0-12.078h-.945v-6.039h.945zm-.945 54.352h.945v2.834h-.945zm103.454-69.264h.945v2.834h-.945zm.944 63.225h-.944v-6.04h.945zm0-12.078h-.944v-6.04h.945zm0-12.079h-.944v-6.039h.945zm0-12.078h-.944v-6.039h.945zm0-12.078h-.944v-6.039h.945zm-.944 54.352h.945v2.834h-.945zm52.185-124.712h.945v2.834h-.945zm.945 118.908h-.945v-5.804h.945zm0-11.607h-.945v-5.804h.945zm0-11.608h-.945v-5.803h.945zm0-11.607h-.945v-5.804h.945zm0-11.607h-.945v-5.804h.945zm0-11.608h-.945v-5.803h.945zm0-11.607h-.945v-5.804h.945zm0-11.607h-.945v-5.804h.945zm0-11.608h-.945v-5.804h.945zm0-11.607h-.945v-5.804h.945zm-.945 110.27h.945v2.834h-.945zm51.665-147.387h.945v2.834h-.945zm.944 141.605h-.944v-5.782h.945zm0-11.564h-.944v-5.783h.945zm0-11.564h-.944v-5.783h.945zm0-11.565h-.944v-5.782h.945zm0-11.564h-.944v-5.782h.945zm0-11.564h-.944v-5.782h.945zm0-11.564h-.944v-5.782h.945zm0-11.564h-.944v-5.783h.945zm0-11.564h-.944v-5.783h.945zm0-11.565h-.944v-5.782h.945zm0-11.564h-.944v-5.782h.945zm0-11.564h-.944v-5.782h.945zm-.944 132.988h.945v2.834h-.945zM523.155 172.785h.945v2.834h-.945zm.945 101.738h-.945v-5.494h.945zm0-10.99h-.945v-5.494h.945zm0-10.988h-.945v-5.495h.945zm0-10.99h-.945v-5.494h.945zm0-10.99h-.945v-5.494h.945zm0-10.989h-.945v-5.494h.945zm0-10.989h-.945v-5.495h.945zm0-10.99h-.945v-5.494h.945zm0-10.989h-.945v-5.494h.945zm-.945 93.41h.945v2.834h-.945z"/><path fill="#3f3d56" d="M731.842 284.168H419.061a.979.979 0 0 1-.979-.979V133.273a.979.979 0 0 1 1.958 0V282.21h311.802a.979.979 0 1 1 0 1.958z"/><path fill="#3f3d56" d="m575.548 212.069-52.004-38.951-51.293 38.419-1.174-1.567 52.467-39.298 51.756 38.766 51.431-56.283.207-.084 51.879-20.903.732 1.817-51.673 20.819-52.328 57.265z"/><circle cx="471.664" cy="210.754" r="5.873" fill="#1de4b4"/><circle cx="523.544" cy="172.578" r="5.873" fill="#1de4b4"/><circle cx="575.424" cy="210.754" r="5.873" fill="#1de4b4"/><circle cx="627.303" cy="153.98" r="5.873" fill="#1de4b4"/><circle cx="679.183" cy="132.445" r="5.873" fill="#1de4b4"/><path fill="#e5e5e5" d="M347.27 28.676h2v353.388h-2z"/><path fill="#ffb7b7" d="M820.769 378.447a7.346 7.346 0 0 0-1.961-11.091l4.882-25.643-12.521 5.218-2.716 23.55a7.385 7.385 0 0 0 12.316 7.966zm62.431 157.35h-10.602l-5.044-40.894 15.648.001-.002 40.893z"/><path fill="#2f2e41" d="M885.903 546.074h-34.185v-.433a13.307 13.307 0 0 1 13.306-13.306l20.88.001z"/><path fill="#ffb7b7" d="M825.26 535.797h-10.602l-5.044-40.894 15.648.001-.002 40.893z"/><path fill="#2f2e41" d="M825.37 546.074h-34.186v-.433a13.307 13.307 0 0 1 13.306-13.306l20.88.001zm-.979-182.991-10.377 23.907-8.561 137.413 21.62-.865 5.905-65.505 18.214-58.344 10.472 65.044 4.324 57.075 17.889.775 7.128-159.5h-66.614z"/><path fill="#1de4b4" d="m876.264 245.113-30.077.753-17.658 9.065-.97 66.88-11.012 46.174s68.81 4.736 78.323-2.182l-11.242-52.752 15.078-57.009z"/><path fill="#1de4b4" d="m831.742 255.976-3.213-1.045s-10.192 6.54-9.222 22.353c0 0-.382 8.183-.017 13.629.418 6.246-12.107 68.317-12.107 68.317h18.16l7.783-56.21z"/><path fill="#ffb7b7" d="M898.235 379.312a7.346 7.346 0 0 1 1.961-11.091l-4.882-25.643 12.521 5.218 2.716 23.55a7.385 7.385 0 0 1-12.316 7.966z"/><path fill="#1de4b4" d="m894.18 256.841 3.213-1.046s10.192 6.541 9.222 22.354c0 0 .382 8.183.017 13.629-.418 6.246 5.189 68.317 5.189 68.317h-18.16l-7.783-56.21z"/><path fill="#ffb7b7" d="M883.647 217.054a20.85 20.85 0 1 1-20.85-20.85 20.798 20.798 0 0 1 20.85 20.747v.103z"/><path fill="#2f2e41" d="M842.017 189.05c2.442-5.253 7.169-4.214 11.303-2.434 5.234-1.161 10.213-4.637 15.853-2.581 5.556 8.08 24.21 5.703 20.24 18.858-.004 3.152 5.932 1.317 4.896 6.48 3.145 9.936-11.352 28.752-19.674 24.79 2.058-3.773 6.76-12.34-.371-13.19-15.34 14.273-1.583-27.18-20.858-15.125-6.382 5.84-15.12-10.957-11.39-16.799z"/></svg>