<svg xmlns="http://www.w3.org/2000/svg" width="578.001" height="621.926" data-name="Layer 1"><path fill="#f2f2f2" d="m366.643 352.86-249.849 64.339a33.037 33.037 0 0 1-40.187-23.728L1.047 100.044a33.037 33.037 0 0 1 23.727-40.187L257.218 0l59.495 26.634 73.658 286.04a33.037 33.037 0 0 1-23.728 40.186z"/><path fill="#fff" d="M27.143 69.057a23.527 23.527 0 0 0-16.897 28.618l75.561 293.427a23.527 23.527 0 0 0 28.618 16.897l249.849-64.339a23.527 23.527 0 0 0 16.897-28.618L308.654 33.435l-52.285-23.406z"/><path fill="#f2f2f2" d="m316.078 28.148-38.668 9.957a10.99 10.99 0 0 1-13.384-7.903l-7.354-28.56a.687.687 0 0 1 .944-.798l58.57 26.01a.687.687 0 0 1-.108 1.294z"/><path fill="#ccc" d="m295.735 278.728-113.753 29.293a5.495 5.495 0 0 1-2.74-10.644l113.752-29.292a5.495 5.495 0 1 1 2.741 10.643zm26.577 12.308-135.705 34.946a5.495 5.495 0 0 1-2.74-10.644l135.705-34.945a5.495 5.495 0 0 1 2.74 10.643z"/><circle cx="135.555" cy="323.878" r="19.423" fill="#e6e6e6" data-name="Ellipse 44"/><path fill="#fff" d="m283.64 227.896-151.075 38.89a17.02 17.02 0 0 1-20.701-12.226l-31.66-122.99a17.02 17.02 0 0 1 12.225-20.702L243.504 71.98a17.02 17.02 0 0 1 20.702 12.226l31.66 122.99a17.02 17.02 0 0 1-12.226 20.701z"/><path fill="#e6e6e6" d="m283.64 227.896-151.075 38.89a17.02 17.02 0 0 1-20.701-12.226l-31.66-122.99a17.02 17.02 0 0 1 12.225-20.702L243.504 71.98a17.02 17.02 0 0 1 20.702 12.226l31.66 122.99a17.02 17.02 0 0 1-12.226 20.701zM92.928 112.806a15.017 15.017 0 0 0-10.787 18.265l31.66 122.99a15.017 15.017 0 0 0 18.265 10.788l151.075-38.89a15.017 15.017 0 0 0 10.787-18.265l-31.66-122.99a15.017 15.017 0 0 0-18.265-10.788z"/><path fill="#f2f2f2" d="m235.84 113.334-76.246 19.626a2.73 2.73 0 0 1-3.308-1.718 2.63 2.63 0 0 1 1.853-3.34l77.613-19.978c3.135 1.588 2.31 4.837.087 5.41z" data-name="Path 411"/><path fill="#f2f2f2" d="m239.283 126.708-76.246 19.626a2.73 2.73 0 0 1-3.308-1.718 2.63 2.63 0 0 1 1.852-3.34l77.614-19.978c3.135 1.588 2.31 4.837.087 5.41z" data-name="Path 412"/><path fill="#e6e6e6" d="m148.515 158.192-23.27 5.99a2.962 2.962 0 0 1-3.603-2.128l-7.068-27.46a2.962 2.962 0 0 1 2.127-3.603l23.27-5.99a2.963 2.963 0 0 1 3.603 2.128l7.069 27.46a2.962 2.962 0 0 1-2.128 3.603z" data-name="Path 413"/><path fill="#f2f2f2" d="m246.11 154.148-116.365 29.954a2.73 2.73 0 0 1-3.308-1.719 2.63 2.63 0 0 1 1.852-3.339l117.734-30.306c3.135 1.588 2.31 4.838.087 5.41z" data-name="Path 414"/><path fill="#f2f2f2" d="M249.553 167.526 133.19 197.48a2.73 2.73 0 0 1-3.309-1.719 2.63 2.63 0 0 1 1.853-3.339l117.734-30.306c3.135 1.588 2.31 4.838.087 5.41z" data-name="Path 415"/><path fill="#f2f2f2" d="M252.995 180.895 136.63 210.849a2.73 2.73 0 0 1-3.308-1.718 2.63 2.63 0 0 1 1.853-3.34l117.733-30.306c3.135 1.588 2.31 4.838.087 5.41z" data-name="Path 416"/><path fill="#f2f2f2" d="m256.438 194.272-116.364 29.954a2.73 2.73 0 0 1-3.309-1.719 2.63 2.63 0 0 1 1.853-3.339l117.733-30.306c3.136 1.588 2.31 4.838.087 5.41z" data-name="Path 417"/><path fill="#f2f2f2" d="m259.88 207.642-116.365 29.954a2.73 2.73 0 0 1-3.308-1.718 2.63 2.63 0 0 1 1.853-3.34l117.733-30.306c3.135 1.588 2.31 4.838.087 5.41z" data-name="Path 418"/><path fill="#fff" d="M136.988 330.686a2.014 2.014 0 0 1-1.274-.088l-.025-.01-5.291-2.243a2.029 2.029 0 1 1 1.587-3.734l3.429 1.459 4.493-10.57a2.028 2.028 0 0 1 2.659-1.072l-.026.07.028-.07a2.03 2.03 0 0 1 1.072 2.66l-5.286 12.427a2.029 2.029 0 0 1-1.365 1.168z" data-name="Path 395"/><path fill="#e6e6e6" d="M462.475 464.678h-258a33.037 33.037 0 0 1-33-33v-303a33.037 33.037 0 0 1 33-33h240.027l50.973 40.628v295.372a33.037 33.037 0 0 1-33 33z"/><path fill="#fff" d="M204.475 105.178a23.527 23.527 0 0 0-23.5 23.5v303a23.527 23.527 0 0 0 23.5 23.5h258a23.527 23.527 0 0 0 23.5-23.5V140.883l-44.796-35.705z"/><path fill="#1de4b4" d="M412.294 193.282H294.83a5.495 5.495 0 0 1 0-10.991h117.464a5.495 5.495 0 1 1 0 10.99zm22.669 18.547H294.83a5.495 5.495 0 0 1 0-10.991h140.133a5.495 5.495 0 1 1 0 10.99z"/><path fill="#ccc" d="M412.295 265.406h-117.46a5.495 5.495 0 1 0 0 10.99h117.46a5.495 5.495 0 0 0 0-10.99zm22.67 18.55h-140.13a5.495 5.495 0 1 0 0 10.99h140.13a5.495 5.495 0 0 0 0-10.99zm-22.671 75.561H294.83a5.495 5.495 0 0 1 0-10.99h117.464a5.495 5.495 0 1 1 0 10.99zm22.669 18.547H294.83a5.495 5.495 0 0 1 0-10.99h140.133a5.495 5.495 0 1 1 0 10.99z"/><circle cx="245.916" cy="197.06" r="19.423" fill="#1de4b4" data-name="Ellipse 44"/><path fill="#fff" d="M243.99 204.47a2.014 2.014 0 0 1-1.211-.404l-.022-.016-4.564-3.492a2.029 2.029 0 1 1 2.468-3.22l2.957 2.268 6.986-9.115a2.028 2.028 0 0 1 2.843-.376l-.043.061.045-.06a2.03 2.03 0 0 1 .375 2.843l-8.218 10.717a2.029 2.029 0 0 1-1.613.79z" data-name="Path 395"/><path fill="#ccc" d="M267.335 280.176a19.423 19.423 0 0 1-19.42 19.43 4.176 4.176 0 0 1-.5-.02 19.422 19.422 0 1 1 19.92-19.41z"/><circle cx="245.916" cy="363.295" r="19.423" fill="#ccc" data-name="Ellipse 44"/><path fill="#ccc" d="M494.483 137.614h-39.929a10.99 10.99 0 0 1-10.99-10.99V97.131a.687.687 0 0 1 1.113-.538l50.233 39.795a.687.687 0 0 1-.427 1.225z"/><path fill="#1de4b4" d="M267.335 280.176a19.423 19.423 0 0 1-19.42 19.43 4.176 4.176 0 0 1-.5-.02 42.05 42.05 0 0 1 3.77-38.56 19.433 19.433 0 0 1 16.15 19.15zm22-9.27a5.51 5.51 0 0 1 5.5-5.5h29.27a41.573 41.573 0 0 1 3.61 10.99h-32.88a5.501 5.501 0 0 1-5.5-5.49zm39.06 13.05a41.924 41.924 0 0 1-1.46 10.99h-32.1a5.495 5.495 0 1 1 0-10.99z"/><path fill="#3f3d56" d="M400.817 351.733a6 6 0 0 1-8.247 1.998l-70.005-42.7a6 6 0 0 1 6.249-10.245l70.005 42.7a6 6 0 0 1 1.998 8.247z"/><path fill="#3f3d56" d="M330.812 309.033a48 48 0 1 1-15.983-65.974 48.054 48.054 0 0 1 15.983 65.974zm-71.713-43.742a36 36 0 1 0 49.48-11.987 36.04 36.04 0 0 0-49.48 11.987z"/><circle cx="484.603" cy="267.173" r="24.561" fill="#a0616a"/><path fill="#a0616a" d="M483.016 404.864a11.002 11.002 0 0 1 8.322-14.151 10.468 10.468 0 0 1 1.46-.18l25.871-41.524-23.632-22.466a9.432 9.432 0 1 1 13.12-13.553l32.63 32.174.065.08a8.545 8.545 0 0 1-.594 10.184l-36.25 42.873a10.301 10.301 0 0 1 .27 1.046 11.003 11.003 0 0 1-9.875 13.117q-.469.04-.932.04a11.037 11.037 0 0 1-10.455-7.64zm-38.865 204.137-12.26-.001-5.832-47.288 18.094.001-.002 47.288z"/><path fill="#2f2e41" d="m447.277 620.885-39.53-.002v-.5a15.386 15.386 0 0 1 15.386-15.386h.001l24.144.001z"/><path fill="#a0616a" d="m566.007 592.05-10.534 6.272-29.205-37.646 15.547-9.257 24.192 40.631z"/><path fill="#2f2e41" d="m574.773 600.662-33.966 20.223-.256-.43a15.386 15.386 0 0 1 5.349-21.092l20.746-12.352zm-150.26-12.486c-8.213-96.707-13.099-186.545 16.924-223.194l.232-.284 50.526 20.21.083.182c.17.37 16.974 37.333 13.054 62.194l12.463 57.328 40.635 68.041a4.501 4.501 0 0 1-2.05 6.428l-17.66 7.77a4.521 4.521 0 0 1-5.648-1.766l-44.204-72.08-24.968-55.287a1.5 1.5 0 0 0-2.859.46l-13.84 130.096a4.492 4.492 0 0 1-4.474 4.025h-13.729a4.53 4.53 0 0 1-4.485-4.123z"/><path fill="#1de4b4" d="m441.607 365.749-.24-.115-.038-.265c-1.888-13.21.346-27.888 6.64-43.625A34.636 34.636 0 0 1 488.17 301a34.594 34.594 0 0 1 22.061 16.964 34.22 34.22 0 0 1 2.373 27.424c-7.934 23.2-18.226 44.908-18.33 45.124l-.215.454z"/><path fill="#a0616a" d="M386.48 332.845a11.002 11.002 0 0 1 16.17 2.84 10.469 10.469 0 0 1 .68 1.304l47.954 9.692 12.768-30.003a9.432 9.432 0 1 1 17.29 7.543l-18.71 41.83-.052.09a8.545 8.545 0 0 1-9.748 3.01l-52.853-18.94a10.303 10.303 0 0 1-.885.618 11.003 11.003 0 0 1-15.744-4.656q-.202-.425-.365-.859a11.037 11.037 0 0 1 3.496-12.469z"/><path fill="#2f2e41" d="M573.332 293.475c-2.366-4.192-5.813-8.03-10.37-9.58-5.884-2.001-12.256.13-18.307 1.552-4.661 1.096-9.531 1.767-14.23.842-4.698-.925-9.23-3.66-11.368-7.944-3.145-6.304-.496-13.821-.687-20.863a25.334 25.334 0 0 0-31.924-23.81c-5.793-1.673-11.039-1.827-14.622 2.627a17 17 0 0 0-17 17h16.255a16.15 16.15 0 0 0 2.454 11.93c2.87 4.216 7.86 7.266 8.82 12.275.931 4.853-2.368 9.458-5.83 12.986-3.46 3.528-7.474 7.024-8.555 11.847a14.689 14.689 0 0 0 2.104 10.564 34.403 34.403 0 0 0 7.386 8.136 108.402 108.402 0 0 0 45.038 23.04c11.704 2.818 24.505 3.549 35.37-1.635a35.126 35.126 0 0 0 15.466-48.967z"/><path fill="#ccc" d="M577.001 621.926h-190a1 1 0 0 1 0-2h190a1 1 0 0 1 0 2z"/></svg>