<svg width="70" height="281" viewBox="0 0 70 281" fill="none" xmlns="http://www.w3.org/2000/svg">
<path d="M3 281L46.5941 265.739L11.5809 235.616L3 281ZM0.43265 7.06736C2.28292 8.61602 4.16738 10.2826 6.07261 12.0639L11.5362 6.22026C9.52738 4.34204 7.53334 2.57815 5.56735 0.932637L0.43265 7.06736ZM16.6546 22.9716C19.8882 26.6293 23.1063 30.585 26.2468 34.8218L32.6737 30.0578C29.3953 25.6351 26.0325 21.5011 22.6483 17.673L16.6546 22.9716ZM34.8074 47.4378C37.4227 51.6593 39.9295 56.0886 42.285 60.7135L49.4137 57.0828C46.954 52.2533 44.3372 47.63 41.6082 43.2248L34.8074 47.4378ZM48.6122 74.5632C50.4895 79.188 52.201 83.9704 53.7127 88.9007L61.3613 86.5555C59.7785 81.3935 57.9876 76.3898 56.0248 71.5543L48.6122 74.5632ZM57.512 103.633C58.5376 108.52 59.3585 113.529 59.9467 118.654L67.8945 117.742C67.2775 112.366 66.4165 107.113 65.3414 101.99L57.512 103.633ZM60.974 133.798C61.0794 138.774 60.9593 143.845 60.5907 149.005L68.5703 149.575C68.9568 144.166 69.0828 138.848 68.9722 133.628L60.974 133.798ZM58.8222 164.101C58.0239 169.005 56.9959 173.981 55.7198 179.024L63.4754 180.986C64.8079 175.72 65.8828 170.518 66.7182 165.387L58.8222 164.101ZM51.3834 193.612C49.7765 198.316 47.9492 203.073 45.8874 207.88L53.2396 211.034C55.3803 206.043 57.2806 201.096 58.9539 196.198L51.3834 193.612ZM39.3562 221.727C37.0845 226.141 34.6112 230.594 31.9258 235.081L38.7906 239.189C41.5619 234.558 44.1183 229.956 46.4695 225.387L39.3562 221.727ZM23.6706 247.992C20.8625 252.118 17.8719 256.271 14.6912 260.448L21.0563 265.294C24.3209 261.007 27.3944 256.739 30.2841 252.493L23.6706 247.992Z" fill="#1DE4B4"/>
</svg>
