<svg xmlns="http://www.w3.org/2000/svg" width="904.512" height="587.861" data-name="Layer 1"><path fill="#00bfa6" d="M883.038 359.027h-31.804a4.5 4.5 0 0 1-3.534-1.702 4.408 4.408 0 0 1-.863-3.746 86.535 86.535 0 0 0-.42-40.004 4.471 4.471 0 0 1 2.422-5.131c13.285-6.218 25.484-6.056 36.257.48a4.527 4.527 0 0 1 2.143 3.152 141.552 141.552 0 0 1 .26 43.08 4.49 4.49 0 0 1-4.46 3.871z"/><path fill="#fff" d="M882.555 338.192h-24.317a2.281 2.281 0 0 1 0-4.562h24.317a2.281 2.281 0 0 1 0 4.562zm0-8h-24.317a2.281 2.281 0 0 1 0-4.562h24.317a2.281 2.281 0 0 1 0 4.562z"/><circle cx="246.148" cy="186.839" r="169" fill="#f2f2f2"/><circle cx="442.148" cy="318.839" r="32" fill="#f2f2f2"/><circle cx="603.148" cy="409.839" r="13" fill="#f2f2f2"/><path fill="#f2f2f2" d="M703.522 460.97c-5.482-41.892-31.73-83.034-71.801-96.422a194.659 194.659 0 0 1 .846 133.644c-6.038 16.658-14.488 34.558-8.601 51.271 3.662 10.4 12.51 18.317 22.375 23.24 9.865 4.923 20.793 7.23 31.585 9.489l2.132 1.74c16.86-38.739 28.946-81.07 23.464-122.962z"/><path fill="#fff" d="M631.329 365.343a166.38 166.38 0 0 1 41.96 93.373c.775 7.452.912 15.078-.67 22.439a41.094 41.094 0 0 1-10.1 19.125c-4.573 5.09-9.842 9.768-13.099 15.882-3.433 6.445-3.52 13.742-1.097 20.549 2.963 8.328 8.742 15.094 14.624 21.515 6.53 7.129 13.426 14.43 16.243 23.918.341 1.15 2.105.553 1.764-.595-4.901-16.508-21.016-25.8-28.768-40.647-3.617-6.928-5.168-14.988-1.866-22.347 2.888-6.435 8.316-11.263 12.992-16.377 4.91-5.37 8.664-11.252 10.571-18.333 1.952-7.243 2.112-14.891 1.532-22.33a161.42 161.42 0 0 0-12.103-48.978 169.33 169.33 0 0 0-30.76-48.598c-.802-.887-2.02.524-1.223 1.404z"/><path fill="#fff" d="M672.716 447.45a24.962 24.962 0 0 0 18.834-26.27c-.103-1.194-1.962-1.09-1.86.105a23.115 23.115 0 0 1-17.569 24.4c-1.164.285-.562 2.048.595 1.765zm-7.536 50.554a48.113 48.113 0 0 1-21.663-27.571c-.346-1.149-2.11-.552-1.765.595a50.045 50.045 0 0 0 22.6 28.645c1.037.605 1.858-1.066.827-1.669zm-10.991-101.527a14.13 14.13 0 0 1-13.395-.594c-1.028-.618-1.848 1.054-.827 1.669a15.834 15.834 0 0 0 14.817.69.962.962 0 0 0 .584-1.18.936.936 0 0 0-1.18-.585z"/><path fill="#f2f2f2" d="M510.323 440.212c.63.405 1.262.81 1.894 1.23a186.083 186.083 0 0 1 23.911 18.423c.585.515 1.17 1.045 1.739 1.576a196.173 196.173 0 0 1 42.977 58.047 190.508 190.508 0 0 1 10.608 26.932c3.933 12.752 7.182 26.89 14.87 37.293a32.684 32.684 0 0 0 2.567 3.126l68.88-.44c.156-.08.313-.144.47-.224l2.75.109c-.113-.487-.241-.989-.355-1.475-.064-.283-.145-.565-.21-.848-.047-.188-.096-.376-.129-.549a2.613 2.613 0 0 0-.048-.173c-.032-.172-.08-.33-.113-.486q-1.064-4.213-2.191-8.425c0-.016 0-.016-.016-.032-5.78-21.384-13.395-42.473-23.969-61.736-.318-.58-.636-1.174-.986-1.754a181.788 181.788 0 0 0-16.487-24.662 160.709 160.709 0 0 0-10.78-12.174 133.64 133.64 0 0 0-33.602-24.836c-24.789-12.886-53.422-17.7-79.773-9.563a98.47 98.47 0 0 0-2.007.641z"/><path fill="#fff" d="M510.483 441.085a166.38 166.38 0 0 1 89.72 49.29c5.105 5.483 9.806 11.49 12.974 18.32a41.094 41.094 0 0 1 3.451 21.35c-.587 6.82-1.977 13.726-.897 20.569 1.14 7.212 5.464 13.091 11.496 17.068 7.38 4.865 16.068 6.788 24.63 8.373 9.506 1.76 19.407 3.439 27.37 9.318.964.713 2.013-.826 1.05-1.537-13.853-10.23-32.314-7.946-47.442-15.134-7.06-3.354-13.15-8.855-14.944-16.72-1.57-6.876-.141-14 .513-20.898.687-7.244.142-14.2-2.597-21.002-2.803-6.958-7.28-13.162-12.222-18.752a161.42 161.42 0 0 0-39.151-31.819 169.331 169.331 0 0 0-53.82-20.283c-1.174-.225-1.297 1.634-.13 1.857z"/><path fill="#fff" d="M592.963 481.725a24.962 24.962 0 0 0-.78-32.314c-.8-.891-2.223.31-1.421 1.203a23.115 23.115 0 0 1 .663 30.06c-.758.929.784 1.974 1.538 1.051zm24.418 44.903a48.113 48.113 0 0 1-33.896-8.973c-.967-.709-2.016.83-1.05 1.538a50.045 50.045 0 0 0 35.29 9.265c1.193-.14.842-1.97-.343-1.83zm-69.901-74.447a14.13 14.13 0 0 1-11.052 7.59c-1.194.125-.842 1.954.344 1.83a15.834 15.834 0 0 0 12.246-8.37.962.962 0 0 0-.244-1.293.936.936 0 0 0-1.294.243z"/><path fill="#ffb8b8" d="m840.69 297.25-9.314-90.164-2.459-37.109 26.072-4.714s3.905 25.51 7.32 40.48c3.37 14.774-4.49 89.527-4.698 91.498a12.685 12.685 0 1 1-16.92.008z"/><path fill="#ffb6b6" d="M734.148 574.092h-13.264l-6.31-51.16 19.576.001-.002 51.159z"/><path fill="#2f2e41" d="m737.53 586.95-42.767-.002v-.541a16.647 16.647 0 0 1 16.646-16.646h.001l7.812-5.927 14.576 5.928h3.733z"/><path fill="#ffb6b6" d="M851.045 574.092h-13.263l-6.31-51.16 19.576.001-.003 51.159z"/><path fill="#2f2e41" d="m854.428 586.95-42.768-.002v-.541a16.647 16.647 0 0 1 16.647-16.646l7.813-5.927 14.575 5.928h3.734zm-23.556-286.669 11.156 105.98s14.85 106.118 12.062 120.76.697 16.734.697 16.734l-25.448-1.813s.697-9.064-3.486-13.247-2.092-16.734-2.092-16.734l-49.365-172.634-29.982 90.641s-4.88 99.706-5.578 101.1-2.789 20.22-2.789 20.22H710.25s3.486-11.156-1.394-14.642-9.064-.697-4.88-6.972 5.577-13.945 4.183-17.431-1.395-17.431-1.395-17.431 2.092-188.256 13.945-194.53 110.164 0 110.164 0z"/><circle cx="778.04" cy="58.259" r="27.439" fill="#ffb8b8"/><path fill="#3f3d56" d="m859.385 179.647-26.986 9.678-8.22 2.945-5.998-76.627 20.588 10.92a.431.431 0 0 1 .09.09 55.716 55.716 0 0 1 8.863 13.15c11.291 22.953 11.663 39.844 11.663 39.844z"/><path fill="#ffb8b8" d="M673.48 290.776s27.428-85.219 27.908-86.24c3.592-27.281 13.925-39.315 15.473-38.008l26.668 9.238s-7.932 25.12-13.303 40.04c-5.132 14.256-40.278 80.08-41.265 81.799a12.685 12.685 0 1 1-15.48-6.829z"/><path fill="#3f3d56" d="M756.34 120.578s-23.09-11.316-32.044 10.91c-5.865 14.988-8.642 21.526-12.558 37.137 0 0 23.535 3.53 31.082 16.83z"/><path fill="#3f3d56" d="M840.355 311.832c-53.139 10.974-123.558-7.893-123.558-7.893l18.785-81.43-6.679-85.217c-.815-10.421 5.12-20.19 14.354-23.651l12.75-4.776 10.54-15.088 30.103.988 12.034 15.84 9.497 5.038 20.588 10.92.09.045v.045l-6.46 62.672-3.897 37.788s11.835 42.5 9.406 48.136c-2.428 5.628-.317 2.91.272 5.918.59 3.008 2.392 3.199 2.664 9.125.281 5.918-.489 21.54-.489 21.54z"/><path fill="#2f2e41" d="M807.806 48.488c-2.168-2.14 1.096-7.802.48-10.785-.708-3.42-4.476-3.52-5.375-6.895-.968-3.63-4.835-5.607-8.412-6.757a54.391 54.391 0 0 0-28.347-1.299 108.201 108.201 0 0 0-12.263 3.778c-2.768.974-.099-1.676-2.867-.702a4.345 4.345 0 0 0-2.595 1.722c-.497.94.174 2.445 1.22 2.254l-10.136 4.47 5.685 5.956c-2.694-.766-5.566 2.446-4.504 5.038a5.693 5.693 0 0 0 4.356 3.015c3.044.593.735 3.49 3.836 3.433s24.719-6.412 26.226-3.702c1.073 1.93.955 4.486 2.488 6.076 1.96 2.033 5.384 1.29 7.88-.035 2.495-1.324 5.026-3.144 7.833-2.826 2.93.331 5.147 5.747 5.869 8.607.722 2.86.266 5.869-.194 8.782-.603 3.827-6.643 7.653-7.247 11.48 6.704 1.853 13.896-4.045 16.546-14.304-.264-6.484 4.141-12.748-.48-17.306z"/><path fill="#3f3d56" d="M381.247 404.844c-80.774.004-151.052-60.252-161.435-142.438l1.985-.25c10.254 81.17 79.676 140.683 159.452 140.688a161.36 161.36 0 0 0 20.273-1.28c87.986-11.115 150.525-91.739 139.41-179.725l1.984-.25c11.253 89.079-52.063 170.707-141.143 181.96a163.744 163.744 0 0 1-20.526 1.295z"/><path fill="#00bfa6" d="M385.585 438.292H353.78a4.5 4.5 0 0 1-3.535-1.703 4.408 4.408 0 0 1-.862-3.745 86.516 86.516 0 0 0-.52-40.401 4.477 4.477 0 0 1 1.95-4.874c11.003-6.815 22.984-6.603 36.629.652a4.55 4.55 0 0 1 2.368 3.275 141.562 141.562 0 0 1 .234 42.925 4.49 4.49 0 0 1-4.46 3.871z"/><path fill="#ccc" d="M240.585 268.292H208.78a4.5 4.5 0 0 1-3.535-1.703 4.408 4.408 0 0 1-.862-3.745 86.49 86.49 0 0 0-.556-40.536 4.509 4.509 0 0 1 1.75-4.739c16.353-11.761 29.232-11.42 38.28 1.017a4.52 4.52 0 0 1 .79 1.91 141.54 141.54 0 0 1 .397 43.925 4.49 4.49 0 0 1-4.46 3.871z"/><path fill="#fff" d="M370.725 408.443h-10.94a2.281 2.281 0 0 1 0-4.562h10.94a2.281 2.281 0 0 1 0 4.562zm13.377 9.014h-24.318a2.281 2.281 0 0 1 0-4.563h24.318a2.281 2.281 0 0 1 0 4.563zM230.725 236.443h-10.94a2.281 2.281 0 0 1 0-4.562h10.94a2.281 2.281 0 0 1 0 4.562zm0 8h-10.94a2.281 2.281 0 0 1 0-4.562h10.94a2.281 2.281 0 0 1 0 4.562zm0 8h-10.94a2.281 2.281 0 0 1 0-4.562h10.94a2.281 2.281 0 0 1 0 4.562z"/><path fill="#e6e6e6" d="M668.626 305.865H566.961a10.288 10.288 0 0 1-10.276-10.277v-62.616a10.288 10.288 0 0 1 10.276-10.276h101.665a10.288 10.288 0 0 1 10.277 10.276v62.616a10.288 10.288 0 0 1-10.277 10.277z"/><path fill="#fff" d="M628.233 297.8h-54.125a9.636 9.636 0 0 1-9.625-9.625v-47.79a9.636 9.636 0 0 1 9.625-9.624h87.372a9.635 9.635 0 0 1 9.625 9.624v14.544a42.92 42.92 0 0 1-42.872 42.87z"/><path fill="#00bfa6" d="M652.764 256.93h-69.94a2.281 2.281 0 1 1 0-4.562h69.94a2.281 2.281 0 1 1 0 4.562zm-59 9.013h-10.94a2.281 2.281 0 0 1 0-4.562h10.94a2.281 2.281 0 0 1 0 4.562zm19.377 9.013h-30.317a2.281 2.281 0 0 1 0-4.562h30.317a2.281 2.281 0 1 1 0 4.562z"/><circle cx="553.137" cy="221.448" r="21.506" fill="#3f3d56"/><path fill="#3f3d56" d="M309.687 57.85a56.086 56.086 0 1 1 110.056 21.682l-1.963-.386a54.085 54.085 0 1 0-106.13-20.91z"/><path fill="#00bfa6" d="m330.984 93.234-31.776 1.316a4.5 4.5 0 0 1-3.602-1.555 4.408 4.408 0 0 1-1.017-3.707 86.535 86.535 0 0 0-2.075-39.952 4.471 4.471 0 0 1 2.208-5.227c13.015-6.762 25.21-7.105 36.245-1.02a4.527 4.527 0 0 1 2.272 3.06 141.552 141.552 0 0 1 2.042 43.032 4.49 4.49 0 0 1-4.297 4.053z"/><path fill="#fff" d="m329.64 72.436-24.297 1.007a2.281 2.281 0 1 1-.189-4.559l24.297-1.006a2.281 2.281 0 0 1 .189 4.558zm-.331-7.993-24.297 1.007a2.281 2.281 0 0 1-.189-4.559l24.297-1.006a2.281 2.281 0 0 1 .189 4.558z"/><path fill="#e6e6e6" d="M538.942 83.17H437.277A10.288 10.288 0 0 1 427 72.893V10.277A10.288 10.288 0 0 1 437.277 0h101.665a10.288 10.288 0 0 1 10.277 10.277v62.616a10.288 10.288 0 0 1-10.277 10.277z"/><path fill="#fff" d="M498.549 75.104h-54.126a9.636 9.636 0 0 1-9.625-9.624V17.69a9.636 9.636 0 0 1 9.625-9.625h87.373a9.635 9.635 0 0 1 9.624 9.625v14.543a42.92 42.92 0 0 1-42.871 42.871z"/><path fill="#00bfa6" d="M523.08 34.234h-69.941a2.281 2.281 0 1 1 0-4.562h69.94a2.281 2.281 0 1 1 0 4.562zm-59 9.013h-10.941a2.281 2.281 0 0 1 0-4.562h10.94a2.281 2.281 0 0 1 0 4.562zm19.377 9.013h-30.318a2.281 2.281 0 0 1 0-4.562h30.318a2.281 2.281 0 0 1 0 4.563z"/><circle cx="568.562" cy="238.725" r="21.506" fill="#3f3d56" transform="rotate(-58.134 354.3 293.591)"/><path fill="#ccc" d="M903.592 587.861h-295.47a.92.92 0 0 1 0-1.839h295.47a.92.92 0 1 1 0 1.84z"/><path fill="#3f3d56" d="M134.328 250.43a94.031 94.031 0 0 1 175.898-66.538l-1.87.708a92.03 92.03 0 1 0-172.157 65.122z"/><path fill="#00bfa6" d="M216.585 157.292H184.78a4.5 4.5 0 0 1-3.535-1.703 4.408 4.408 0 0 1-.862-3.745 86.514 86.514 0 0 0-.498-40.31 4.462 4.462 0 0 1 2.058-4.937c11.52-6.706 23.823-6.501 36.565.61a4.513 4.513 0 0 1 2.293 3.235 141.561 141.561 0 0 1 .243 42.979 4.49 4.49 0 0 1-4.46 3.871z"/><path fill="#fff" d="M201.725 126.443h-10.94a2.281 2.281 0 0 1 0-4.562h10.94a2.281 2.281 0 0 1 0 4.562zm13.377 9.014h-24.318a2.281 2.281 0 0 1 0-4.563h24.318a2.281 2.281 0 0 1 0 4.563z"/><path fill="#e6e6e6" d="M111.942 249.17H10.277A10.288 10.288 0 0 1 0 238.893v-62.616A10.288 10.288 0 0 1 10.277 166h101.665a10.288 10.288 0 0 1 10.277 10.277v62.616a10.288 10.288 0 0 1-10.277 10.277z"/><path fill="#fff" d="M71.549 241.104H17.423a9.636 9.636 0 0 1-9.625-9.624v-47.79a9.636 9.636 0 0 1 9.625-9.625h87.373a9.635 9.635 0 0 1 9.624 9.625v14.543a42.92 42.92 0 0 1-42.871 42.871z"/><path fill="#00bfa6" d="M96.08 200.234H26.139a2.281 2.281 0 1 1 0-4.562h69.94a2.281 2.281 0 1 1 0 4.562zm-59 9.013H26.139a2.281 2.281 0 0 1 0-4.562h10.94a2.281 2.281 0 0 1 0 4.562zm19.377 9.013H26.139a2.281 2.281 0 0 1 0-4.562h30.318a2.281 2.281 0 0 1 0 4.563z"/><circle cx="281.562" cy="402.725" r="21.506" fill="#3f3d56" transform="rotate(-58.134 67.3 457.591)"/><path fill="#ff6584" d="M325.585 217.292H293.78a4.5 4.5 0 0 1-3.535-1.703 4.408 4.408 0 0 1-.862-3.745 86.52 86.52 0 0 0-.48-40.24 4.49 4.49 0 0 1 2.124-4.978c15.45-8.844 27.683-8.6 37.4.746a4.44 4.44 0 0 1 1.279 2.476 141.556 141.556 0 0 1 .338 43.573 4.49 4.49 0 0 1-4.46 3.871z"/><path fill="#fff" d="M312.725 187.443h-10.94a2.281 2.281 0 0 1 0-4.562h10.94a2.281 2.281 0 0 1 0 4.562zm13.377 9.014h-24.318a2.281 2.281 0 0 1 0-4.563h24.318a2.281 2.281 0 0 1 0 4.563z"/></svg>